<svg xmlns="http://www.w3.org/2000/svg" viewBox="0 0 87.4 72.55"><defs><style>.cls-1{fill:#8a8b98;}.cls-2{fill:#d0d3e5;}.cls-3{fill:#79abbd;}.cls-4{fill:#9ecee0;}.cls-5{fill:#b2b4c2;}.cls-6{fill:#9698a6;}.cls-7{fill:#1c1c1c;}.cls-8{fill:#3d3d3d;}.cls-9{fill:#b1b4c9;}.cls-10{fill:#acdcee;}.cls-11{fill:#c4e8f5;}.cls-12{fill:#989aa7;}.cls-13{fill:#f4f4f4;}.cls-14{fill:#dfe1ee;}</style></defs><title>Zasób 1</title><g id="Warstwa_2" data-name="Warstwa 2"><g id="Warstwa_1-2" data-name="Warstwa 1"><path class="cls-1" d="M63.85,18.05l.6.05,5.5.45.1.05.7.1h0a6.79,6.79,0,0,1,5.4,3.95l.1.25,0,.2L77.9,28V21a3.8,3.8,0,0,1,1.2-2.85l.05,0A4.1,4.1,0,0,1,82,17a3.94,3.94,0,0,1,2.9,1.2A3.87,3.87,0,0,1,86.05,21V36.65A7.54,7.54,0,0,1,87.4,41a7.85,7.85,0,0,1-1.35,4.4v16.8a4,4,0,0,1-1.15,2.9l0-.1a3.93,3.93,0,0,1-3,1.3,3.84,3.84,0,0,1-2.9-1.2,4,4,0,0,1-1.2-2.9V54.7l-1.5,4.45-.5,1.05A7.92,7.92,0,0,1,71,64h-.1l-.5.1v0l-2,.35.25-2.05,1.4-.3.5-.1a6.17,6.17,0,0,0,3.9-3.1l.05-.1a49.79,49.79,0,0,0,2.9-10.5h.25l.7-.2,1.65-.55v14.6a2,2,0,0,0,.6,1.45,2.1,2.1,0,0,0,1.5.65,1.91,1.91,0,0,0,1.45-.65,2,2,0,0,0,.6-1.45V44.65A5.83,5.83,0,0,0,85.4,41a5.75,5.75,0,0,0-1.35-3.65V21A2,2,0,0,0,82,19a2.17,2.17,0,0,0-1.5.6A2,2,0,0,0,79.9,21V34.4l-1.65-.55-.7-.2-.25,0-.15,0a53.78,53.78,0,0,0-2.75-10v-.05a4.94,4.94,0,0,0-3.9-2.9l-.75-.1L61.3,19.9,61.8,18l2.05.1"/><path class="cls-2" d="M61.8,18l-.5,1.95-1.45,5.3,3.5,13h-3L58.5,31.35l-.15-.6L57,36.05l-.3,1.15-.3,1h-3l.3-1.2.3-1.15L56.85,25.2l-.65-2.5-1.15-4.25-2-7.8,3,.25,2.3,8.7,2.2-8.2.65,0,2.3.25L61.8,18M79.9,34.4V21a2,2,0,0,1,.6-1.45A2.17,2.17,0,0,1,82,19a2,2,0,0,1,2,2.05V62.15a2,2,0,0,1-.6,1.45,1.91,1.91,0,0,1-1.45.65,2.1,2.1,0,0,1-1.5-.65,2,2,0,0,1-.6-1.45V34.4M31.35,10.7l2.9-.2,2.45,9.1,2.5-9.3,3-.05L39.85,19l-1.1,4.25L38.2,25.2,40.8,35l.3,1.1.6,2.15h-3l-.65-2.35-.25-1.1-1.1-4L35.65,34.6l-.25,1-.7,2.55h-3l.75-2.8.25-1,2.45-9.2-1.6-6-2.25-8.5"/><path class="cls-3" d="M31.35,10.7l2.25,8.5-11,.35Q15.11,11.4,6.65,13.5A6.82,6.82,0,0,0,3,15.55,5,5,0,0,0,2.2,20L3,22.2a14.06,14.06,0,0,0,2,3.3,2.68,2.68,0,0,0-.4,1.4,2.71,2.71,0,0,0,1.6,2.4,5.67,5.67,0,0,0,3.55.5l.35-.05,3.7,3.4.9.9a63.66,63.66,0,0,1,9.75,13.3,31.26,31.26,0,0,0,1.85,2.95,5.22,5.22,0,0,0-2.75.8,5.86,5.86,0,0,0-2.8,3.65l-.15.8h.15l.55.55-2.2.75-.3-.45a1.85,1.85,0,0,1-.15-1.1l.15-1,.05,0a7.69,7.69,0,0,1,3.7-4.85l.6-.35-.45-.7a61.14,61.14,0,0,0-9.4-12.85l-.05,0-.85-.85L9.4,31.85a7.55,7.55,0,0,1-4.2-.75v-.05A4.46,4.46,0,0,1,2.55,26.9l.15-1.1A17.4,17.4,0,0,1,1.1,23V23l-.8-2.5,0-.05A6.68,6.68,0,0,1,1.4,14.3a8.37,8.37,0,0,1,4.75-2.75h0q9.11-2.4,17.2,5.95l7.6-.25-1.15-4.4L28.7,13h-.3a7.06,7.06,0,0,1-4.9-2.25v.05l-.8-.95-.2-.3a6.45,6.45,0,0,1-.55-5L22,4.3a7.06,7.06,0,0,1,1.5-2.2,6.74,6.74,0,0,1,5-2.1H66.7a6.88,6.88,0,0,1,5,2.1,6.79,6.79,0,0,1,2,5,7,7,0,0,1-2,5.05A6.29,6.29,0,0,1,66.5,14L65,13.85l-1.1,4.2L61.8,18l1.7-6.25,3.2.3a4.3,4.3,0,0,0,3.6-1.3,4.91,4.91,0,0,0,1.5-3.6,4.91,4.91,0,0,0-1.5-3.6A4.91,4.91,0,0,0,66.7,2H28.5a4.91,4.91,0,0,0-3.6,1.5,5,5,0,0,0-1,1.55A4.77,4.77,0,0,0,24.3,8.6l.6.7A5.22,5.22,0,0,0,28.5,11l2.85-.25M48,64.35a77.3,77.3,0,0,1-8.2-1.9,27,27,0,0,1-6.2-2.6l-.75-.45H32.8l-.15,1L31,58.75l.9-.2.15.05.25-.75.2-1.15a25.46,25.46,0,0,0,7.9,3.8Q44.21,61.6,48,62.3v2"/><path class="cls-4" d="M77.15,33.65l.15,0,.25,0,.7.2,1.65.55V47.55l-1.65.55-.7.2H77.3a45.53,45.53,0,0,0,.4-9.55l-.55-5.1m6.9,3.65A5.75,5.75,0,0,1,85.4,41a5.83,5.83,0,0,1-1.35,3.7V37.3M31.35,10.7,28.5,11A5.22,5.22,0,0,1,24.9,9.3l-.6-.7a4.77,4.77,0,0,1-.45-3.55,5,5,0,0,1,1-1.55A4.91,4.91,0,0,1,28.5,2H66.7a4.91,4.91,0,0,1,3.6,1.5,4.91,4.91,0,0,1,1.5,3.6,4.91,4.91,0,0,1-1.5,3.6A4.3,4.3,0,0,1,66.7,12l-3.2-.3-2.3-.25-.65,0-4.5-.5-3-.25-10.8-.4-3,.05-5,.2-2.9.2m32,27.5H66.7a5.09,5.09,0,0,1,3.6,8.7,4.3,4.3,0,0,1-3.6,1.3l-2-.2L62,47.75l-.75-.1-2.35-.25-20.5-.85L36,46.6l-7.45.55a5.22,5.22,0,0,1-3.6-1.65l-.6-.7a4.77,4.77,0,0,1-.45-3.55,5.07,5.07,0,0,1,4.65-3H63.35M5,25.5a3.94,3.94,0,0,1,1.2-1.25,6.18,6.18,0,0,1,3.65-1.1l11.9,0a2.35,2.35,0,0,1,1.75.7,2,2,0,0,1,.6,1.65,2.39,2.39,0,0,1-.75,1.75,3,3,0,0,1-1.85.95l-11.4,1.6-.35.05a5.67,5.67,0,0,1-3.55-.5,2.71,2.71,0,0,1-1.6-2.4A2.68,2.68,0,0,1,5,25.5"/><path class="cls-5" d="M61.3,19.9l8.45.65.75.1a4.94,4.94,0,0,1,3.9,2.9v.05a53.78,53.78,0,0,1,2.75,10l.55,5.1a45.53,45.53,0,0,1-.4,9.55,49.79,49.79,0,0,1-2.9,10.5l-.05.1a6.17,6.17,0,0,1-3.9,3.1l-.5.1-1.4.3-2,.3v-.45A8.28,8.28,0,0,0,58.2,54l.65-6.6,2.35.25.75.1A1.55,1.55,0,0,0,61.4,49,1.75,1.75,0,0,0,62,50.25a1.62,1.62,0,0,0,1.25.55,1.75,1.75,0,0,0,1.3-.55A1.78,1.78,0,0,0,65,49l-.25-1,2,.2a4.3,4.3,0,0,0,3.6-1.3,5.1,5.1,0,0,0-3.6-8.7H63.35l-3.5-13,1.45-5.3m3.2,6.5a1.67,1.67,0,0,0,.5-1.25,1.84,1.84,0,0,0-.5-1.3,1.87,1.87,0,0,0-1.3-.5,1.72,1.72,0,0,0-1.25.5,1.81,1.81,0,0,0-.55,1.3A1.64,1.64,0,0,0,62,26.4,1.62,1.62,0,0,0,63.2,27a1.75,1.75,0,0,0,1.3-.55"/><path class="cls-6" d="M64.5,26.4a1.75,1.75,0,0,1-1.3.55A1.62,1.62,0,0,1,62,26.4a1.64,1.64,0,0,1-.55-1.25,1.81,1.81,0,0,1,.55-1.3,1.72,1.72,0,0,1,1.25-.5,1.87,1.87,0,0,1,1.3.5,1.84,1.84,0,0,1,.5,1.3,1.67,1.67,0,0,1-.5,1.25M62,47.75l2.8.25L65,49a1.78,1.78,0,0,1-.5,1.25,1.75,1.75,0,0,1-1.3.55A1.62,1.62,0,0,1,62,50.25,1.75,1.75,0,0,1,61.4,49,1.55,1.55,0,0,1,62,47.75"/><path class="cls-7" d="M68.55,62.4l-.25,2.05a9.92,9.92,0,0,1-2.8,5l0,0a10.26,10.26,0,0,1-14.5,0,9.8,9.8,0,0,1-2.75-5l-.05-.25H48v-2l2,.3a7.9,7.9,0,0,0,2.4,5.5,8,8,0,0,0,5.85,2.45,7.89,7.89,0,0,0,5.85-2.45,7.81,7.81,0,0,0,2.45-5.4l2-.3m-35.9-2-.15.1,0,0L31,62.65a6.71,6.71,0,0,1-5,2.1,6.65,6.65,0,0,1-4.95-2L21,62.65a6.85,6.85,0,0,1-2-4.95l.05-.85,2.2-.75A5.21,5.21,0,0,0,21,57.7a4.86,4.86,0,0,0,1.45,3.55,5,5,0,0,0,7.1,0,5.48,5.48,0,0,0,1.4-2.5l1.7,1.65"/><path class="cls-8" d="M58.2,54a8.28,8.28,0,0,1,8.3,8.25v.45a7.81,7.81,0,0,1-2.45,5.4,7.89,7.89,0,0,1-5.85,2.45,8,8,0,0,1-5.85-2.45A7.9,7.9,0,0,1,50,62.6v-.35A8.19,8.19,0,0,1,58.2,54M39.85,19A18.1,18.1,0,0,0,46,20.25a17,17,0,0,0,7.15-1l1.2-.55.7-.25L56.2,22.7l-1.4.6a20.87,20.87,0,0,1-9,1.3,23.13,23.13,0,0,1-7-1.35L39.85,19M21.25,56.1l.75.5,2,.9v.2a2.22,2.22,0,0,0,.55,1.45,2,2,0,0,0,1.45.6,1.8,1.8,0,0,0,1.4-.6l.4-.6,2.35.2H31a5.48,5.48,0,0,1-1.4,2.5,5,5,0,0,1-7.1,0A4.86,4.86,0,0,1,21,57.7a5.21,5.21,0,0,1,.25-1.6m38.4,5.4-.25-.4a1.64,1.64,0,0,0-1.2-.5,1.61,1.61,0,0,0-1.15.5l-.1.15-.15.2a1.38,1.38,0,0,0-.25.8l.05.4v.05l.25.5.2.25a1.69,1.69,0,0,0,1.15.45,1.72,1.72,0,0,0,1.2-.45l.2-.2.2-.6.05-.4-.2-.75"/><path class="cls-9" d="M34.25,10.5l5-.2-2.5,9.3-2.45-9.1m8-.25,10.8.4,2,7.8-.7.25-1.2.55a17,17,0,0,1-7.15,1A18.1,18.1,0,0,1,39.85,19l2.35-8.75m13.85.65,4.5.5-2.2,8.2-2.3-8.7M46.1,18.25a16.62,16.62,0,0,0,6-.7l.3-.15h.1l.2-.1-1.25-4.75-7.7-.3L42.3,17.7l3.8.55"/><path class="cls-10" d="M59,38.2H56.35l.3-1,2.3.15,0,.85m-5.6,0H43.9l1.2-1.85,8.6.65-.3,1.2m-11,0h-.7l-.6-2.15,2.75.2-1.45,2m-3.7,0h-4l.7-2.55,2.65.2.65,2.35m-7,0H28.5a5.07,5.07,0,0,0-4.65,3,4.77,4.77,0,0,0,.45,3.55l.6.7a5.22,5.22,0,0,0,3.6,1.65L36,46.6,31.3,52.75l.35.5a6,6,0,0,1,.75,2.15l6-8.85,20.5.85L58.2,54A8.19,8.19,0,0,0,50,62.25v.35l-2-.3q-3.8-.7-7.65-1.8a25.46,25.46,0,0,1-7.9-3.8l-.2,1.15L32,58.6l-.15-.05-.9.2h-.8l-2.35-.2L26,58.1l-2-.6-2-.9-.75-.5-.55-.55h-.15l.15-.8a5.86,5.86,0,0,1,2.8-3.65,5.22,5.22,0,0,1,2.75-.8,31.26,31.26,0,0,1-1.85-2.95,63.66,63.66,0,0,0-9.75-13.3L32.5,35.4l-.75,2.8M5,25.5a14.06,14.06,0,0,1-2-3.3L2.2,20A5,5,0,0,1,3,15.55a6.82,6.82,0,0,1,3.7-2.05q8.46-2.1,15.9,6.05L33.6,19.2l1.6,6-2.45,9.2-19-1.25-3.7-3.4,11.4-1.6a3,3,0,0,0,1.85-.95,2.39,2.39,0,0,0,.75-1.75,2,2,0,0,0-.6-1.65,2.35,2.35,0,0,0-1.75-.7l-11.9,0a6.18,6.18,0,0,0-3.65,1.1A3.94,3.94,0,0,0,5,25.5M40.8,35,38.2,25.2l.55-1.95a23.13,23.13,0,0,0,7,1.35,20.87,20.87,0,0,0,9-1.3l1.4-.6.65,2.5L54,35.85,40.8,35m-5.15-.35,1.05-3.85,1.1,4-2.15-.15M57,36.05l1.4-5.3.15.6.4,4.8L57,36.05M39.35,55a1.79,1.79,0,0,0-1.8-1.8,1.73,1.73,0,0,0-1.25.55,1.48,1.48,0,0,0-.5,1.15l0,.1a1.72,1.72,0,0,0,.45,1.2l.1.1a1.73,1.73,0,0,0,1.25.55,1.64,1.64,0,0,0,1.2-.5l.1-.05a1.84,1.84,0,0,0,.5-1.3"/><path class="cls-11" d="M39.35,55a1.84,1.84,0,0,1-.5,1.3l-.1.05a1.64,1.64,0,0,1-1.2.5,1.73,1.73,0,0,1-1.25-.55l-.1-.1a1.72,1.72,0,0,1-.45-1.2l0-.1a1.48,1.48,0,0,1,.5-1.15,1.73,1.73,0,0,1,1.25-.55,1.79,1.79,0,0,1,1.8,1.8M43.9,38.2H42.4l1.45-2-2.75-.2L40.8,35l13.2.9L53.7,37l-8.6-.65L43.9,38.2M36,46.6l2.4-.05-6,8.85a6,6,0,0,0-.75-2.15l-.35-.5L36,46.6M13.75,33.15l19,1.25-.25,1L14.65,34.05l-.9-.9m21.9,1.45,2.15.15.25,1.1-2.65-.2.25-1M57,36.05l1.95.1.05,1.2-2.3-.15.3-1.15"/><path class="cls-12" d="M60.35,38.2H59l0-.85-.05-1.2-.4-4.8,1.85,6.85"/><path class="cls-13" d="M24,57.5l2,.6,1.8.45-.4.6a1.8,1.8,0,0,1-1.4.6,2,2,0,0,1-1.45-.6A2.22,2.22,0,0,1,24,57.7v-.2m35.65,4,.2.75-.05.4-.2.6-.2.2a1.72,1.72,0,0,1-1.2.45,1.69,1.69,0,0,1-1.15-.45l-.2-.25-.25-.5v-.05l-.05-.4a1.38,1.38,0,0,1,.25-.8l.15-.2.1-.15a1.61,1.61,0,0,1,1.15-.5,1.64,1.64,0,0,1,1.2.5l.25.4"/><path class="cls-14" d="M83.25,41.1h-2.4v-20a1.17,1.17,0,0,1,.35-.85,1.3,1.3,0,0,1,.85-.35,1,1,0,0,1,.85.3,1.13,1.13,0,0,1,.35.85V41.1"/></g></g></svg>